<?xml version="1.0"?>
<svg xmlns="http://www.w3.org/2000/svg" xmlns:xlink="http://www.w3.org/1999/xlink" version="1.1" viewBox="0 0 224 224" width="30px" height="30px"><g fill="none" fill-rule="nonzero" stroke="none" stroke-width="1" stroke-linecap="butt" stroke-linejoin="miter" stroke-miterlimit="10" stroke-dasharray="" stroke-dashoffset="0" font-family="none" font-weight="none" font-size="none" text-anchor="none" style="mix-blend-mode: normal"><path d="M0,224v-224h224v224z" fill="none"/><g fill="#ffffff"><g id="surface1"><path d="M182.49219,27.97266c-2.35157,0.10938 -4.56641,0.79297 -6.53516,1.55859h-0.02734c-1.9961,0.79297 -11.48437,4.78516 -25.89453,10.82813c-14.41016,6.07032 -33.11328,13.94532 -51.67969,21.76563c-37.07812,15.61328 -73.52734,30.98047 -73.52734,30.98047l0.4375,-0.16406c0,0 -2.51562,0.82031 -5.14062,2.625c-1.33984,0.875 -2.81641,2.07813 -4.10156,3.96484c-1.28516,1.88672 -2.32422,4.78516 -1.94141,7.76563c0.62891,5.05859 3.91016,8.09375 6.26172,9.76172c2.37891,1.69532 4.64844,2.48828 4.64844,2.48828h0.05468l34.17969,11.51172c1.53125,4.92188 10.41797,34.125 12.55078,40.85157c1.25782,4.01953 2.48828,6.53516 4.01953,8.44922c0.73828,0.98438 1.61328,1.80469 2.65234,2.46094c0.41016,0.24609 0.84766,0.4375 1.28516,0.60156c0.13672,0.08203 0.27344,0.10938 0.4375,0.13672l-0.35547,-0.08203c0.10938,0.02734 0.19141,0.10938 0.27343,0.13672c0.27344,0.08203 0.46485,0.10938 0.82032,0.16406c5.41406,1.64063 9.76172,-1.72265 9.76172,-1.72265l0.24609,-0.19141l20.17969,-18.375l33.82422,25.94922l0.76563,0.32813c7.05469,3.08984 14.19141,1.36719 17.96484,-1.66797c3.80078,-3.0625 5.27735,-6.97266 5.27735,-6.97266l0.24609,-0.62891l26.14063,-133.90234c0.73828,-3.30859 0.92968,-6.39843 0.10938,-9.40625c-0.82032,-3.00781 -2.92578,-5.82422 -5.46875,-7.32812c-2.57032,-1.53125 -5.11328,-1.99609 -7.46484,-1.88672zM181.78125,42.32813c-0.02734,0.4375 0.05469,0.38282 -0.13672,1.23047v0.08203l-25.89453,132.50782c-0.10937,0.1914 -0.30078,0.60156 -0.82031,1.01172c-0.54687,0.4375 -0.98437,0.71093 -3.25391,-0.19141l-41.37109,-31.71875l-24.99219,22.77734l5.25,-33.52343c0,0 64.80469,-60.40234 67.59375,-63c2.78907,-2.59766 1.85938,-3.14453 1.85938,-3.14453c0.19141,-3.17187 -4.21093,-0.92968 -4.21093,-0.92968l-85.23047,52.80078l-0.02734,-0.13672l-40.85156,-13.75391v-0.02734c-0.02735,0 -0.08203,-0.02734 -0.10937,-0.02734c0.02734,0 0.21875,-0.08203 0.21875,-0.08203l0.21875,-0.10937l0.21875,-0.08203c0,0 36.47656,-15.36718 73.55468,-30.98047c18.56641,-7.82031 37.26953,-15.69531 51.65234,-21.76562c14.38282,-6.04297 25.01953,-10.47266 25.6211,-10.71875c0.57422,-0.21875 0.30078,-0.21875 0.71093,-0.21875z"/></g></g></g></svg>
