<svg xmlns="http://www.w3.org/2000/svg" viewBox="0 0 224 224" width="30" height="30"><g fill="none" stroke-miterlimit="10" font-family="none" font-weight="none" font-size="none" text-anchor="none" style="mix-blend-mode:normal"><path d="M0 224V0h224v224z"/><path d="M182.492 27.973c-2.351.109-4.566.793-6.535 1.558h-.027c-1.996.793-11.485 4.785-25.895 10.828l-51.68 21.766c-37.078 15.613-73.527 30.98-73.527 30.98l.438-.164s-2.516.82-5.141 2.625c-1.34.875-2.816 2.079-4.102 3.965-1.285 1.887-2.324 4.785-1.941 7.766.629 5.058 3.91 8.094 6.262 9.762 2.379 1.695 4.648 2.488 4.648 2.488h.055l34.18 11.512c1.53 4.921 10.418 34.125 12.55 40.851 1.258 4.02 2.489 6.535 4.02 8.45a9.887 9.887 0 0 0 2.652 2.46c.41.246.848.438 1.285.602.137.082.274.11.438.137l-.356-.082c.11.027.192.109.274.136.273.082.465.11.82.164 5.414 1.641 9.762-1.722 9.762-1.722l.246-.192 20.18-18.375 33.824 25.95.766.328c7.054 3.09 14.19 1.367 17.964-1.668 3.801-3.063 5.278-6.973 5.278-6.973l.246-.629 26.14-133.902c.739-3.309.93-6.399.11-9.406-.82-3.008-2.926-5.825-5.469-7.329-2.57-1.53-5.113-1.996-7.465-1.886zm-.71 14.355c-.028.438.054.383-.137 1.23v.083L155.75 176.148c-.11.192-.3.602-.82 1.012-.547.438-.985.711-3.254-.191l-41.371-31.719-24.993 22.777 5.25-33.523s64.805-60.402 67.594-63c2.79-2.598 1.86-3.145 1.86-3.145.191-3.171-4.211-.93-4.211-.93l-85.23 52.801-.028-.136-40.852-13.754v-.027c-.027 0-.082-.028-.109-.028.027 0 .219-.082.219-.082l.218-.11.22-.081s36.476-15.367 73.554-30.98c18.566-7.821 37.27-15.696 51.652-21.766a7427.553 7427.553 0 0 1 25.621-10.72c.575-.218.301-.218.711-.218z" fill="#fff"/></g></svg>